<?xml version="1.0" standalone="no"?>
<svg xmlns="http://www.w3.org/2000/svg" viewBox="0 0 1440 320"><path fill="#ff006e" fill-opacity="0.1" d="M0,320L7.3,320C14.5,320,29,320,44,272C58.2,224,73,128,87,85.3C101.8,43,116,53,131,96C145.5,139,160,213,175,234.7C189.1,256,204,224,218,192C232.7,160,247,128,262,101.3C276.4,75,291,53,305,48C320,43,335,53,349,85.3C363.6,117,378,171,393,170.7C407.3,171,422,117,436,96C450.9,75,465,85,480,122.7C494.5,160,509,224,524,234.7C538.2,245,553,203,567,192C581.8,181,596,203,611,213.3C625.5,224,640,224,655,192C669.1,160,684,96,698,90.7C712.7,85,727,139,742,170.7C756.4,203,771,213,785,218.7C800,224,815,224,829,192C843.6,160,858,96,873,112C887.3,128,902,224,916,234.7C930.9,245,945,171,960,165.3C974.5,160,989,224,1004,250.7C1018.2,277,1033,267,1047,272C1061.8,277,1076,299,1091,298.7C1105.5,299,1120,277,1135,266.7C1149.1,256,1164,256,1178,250.7C1192.7,245,1207,235,1222,229.3C1236.4,224,1251,224,1265,229.3C1280,235,1295,245,1309,208C1323.6,171,1338,85,1353,69.3C1367.3,53,1382,107,1396,149.3C1410.9,192,1425,224,1433,240L1440,256L1440,320L1432.7,320C1425.5,320,1411,320,1396,320C1381.8,320,1367,320,1353,320C1338.2,320,1324,320,1309,320C1294.5,320,1280,320,1265,320C1250.9,320,1236,320,1222,320C1207.3,320,1193,320,1178,320C1163.6,320,1149,320,1135,320C1120,320,1105,320,1091,320C1076.4,320,1062,320,1047,320C1032.7,320,1018,320,1004,320C989.1,320,975,320,960,320C945.5,320,931,320,916,320C901.8,320,887,320,873,320C858.2,320,844,320,829,320C814.5,320,800,320,785,320C770.9,320,756,320,742,320C727.3,320,713,320,698,320C683.6,320,669,320,655,320C640,320,625,320,611,320C596.4,320,582,320,567,320C552.7,320,538,320,524,320C509.1,320,495,320,480,320C465.5,320,451,320,436,320C421.8,320,407,320,393,320C378.2,320,364,320,349,320C334.5,320,320,320,305,320C290.9,320,276,320,262,320C247.3,320,233,320,218,320C203.6,320,189,320,175,320C160,320,145,320,131,320C116.4,320,102,320,87,320C72.7,320,58,320,44,320C29.1,320,15,320,7,320L0,320Z"></path></svg>